<svg xmlns="http://www.w3.org/2000/svg" width="1834" height="598" viewBox="0 0 1834 598">
  <metadata><?xpacket begin="﻿" id="W5M0MpCehiHzreSzNTczkc9d"?>
<x:xmpmeta xmlns:x="adobe:ns:meta/" x:xmptk="Adobe XMP Core 5.6-c140 79.160451, 2017/05/06-01:08:21        ">
   <rdf:RDF xmlns:rdf="http://www.w3.org/1999/02/22-rdf-syntax-ns#">
      <rdf:Description rdf:about=""/>
   </rdf:RDF>
</x:xmpmeta>
                                                                                                    
                                                                                                    
                                                                                                    
                                                                                                    
                                                                                                    
                                                                                                    
                                                                                                    
                                                                                                    
                                                                                                    
                                                                                                    
                                                                                                    
                                                                                                    
                                                                                                    
                                                                                                    
                                                                                                    
                                                                                                    
                                                                                                    
                                                                                                    
                                                                                                    
                                                                                                    
                           
<?xpacket end="w"?></metadata>
<defs>
    <style>
      .cls-1 {
        fill: #f36e3c;
      }

      .cls-1, .cls-2 {
        fill-rule: evenodd;
      }

      .cls-2 {
        fill: #898989;
      }
    </style>
  </defs>
  <path id="shape-02" class="cls-1" d="M292.283,33L495.112,568l-22.088-.094L270.54,33h21.743Zm439.46,285.452a113.6,113.6,0,0,0-38.313-24.37q-21.112-7.987-48.087-7.993a146.9,146.9,0,0,0-39.877,5.069,90,90,0,0,0-30.886,15.011,70.076,70.076,0,0,0-20.134,24.37q-7.238,14.43-7.232,33.143,0,17.161,5.864,28.463a53.194,53.194,0,0,0,17.4,19.3q11.526,8,28.539,13.257t39.29,9.943q21.891,4.678,38.314,9.748t27.171,12.087a49.2,49.2,0,0,1,16.224,16.572q5.47,9.558,5.474,23.2,0,26.9-20.525,40.162t-56.884,13.257q-31.667,0-57.079-10.723T548,509.9L537.44,525.891q44.953,41.334,109.857,41.331a162.4,162.4,0,0,0,40.464-4.679q18.178-4.68,31.276-13.842a64.313,64.313,0,0,0,20.329-22.81q7.23-13.644,7.233-31.973t-6.842-30.8a60.324,60.324,0,0,0-19.547-21.056q-12.71-8.571-30.885-14.231T648.861,417.5q-21.505-4.679-36.749-8.968T586.9,398q-9.969-6.233-14.66-15.012t-4.692-22.03q0-26.118,18.57-41.526t59.23-15.4q49.259,0,76.235,30.023ZM988.6,288.043H765.367v17.936H867.015v258.9h19.938v-258.9H988.6V288.043Zm108.29,250.13a83.761,83.761,0,0,1-29.52-27.294,110.457,110.457,0,0,1-15.64-38.8,221.541,221.541,0,0,1-4.49-44.84v-139.2H1027.3v139.2a231.517,231.517,0,0,0,5.67,51.468,128.337,128.337,0,0,0,19.15,44.645,99.032,99.032,0,0,0,35.78,31.583q22.275,11.9,55.51,11.893,32.055,0,53.95-11.308a97.92,97.92,0,0,0,35.58-30.608q13.68-19.3,19.74-44.645a227.268,227.268,0,0,0,6.06-53.028v-139.2H1238.8v139.2a218.424,218.424,0,0,1-4.49,44.06,117.212,117.212,0,0,1-15.25,38.991,81.044,81.044,0,0,1-29.32,27.684q-18.57,10.529-46.72,10.528Q1115.255,548.506,1096.89,538.173Zm424.18-250.13H1297.84v17.936h101.64v258.9h19.94v-258.9h101.65V288.043Zm62.94,258.9V431.922h141.13V414.765H1584.01V305.979h161.46V288.043h-181.4V564.882h184.92V546.946H1584.01ZM1781.94,535H1759v3.234h9.51v26.758h3.89V538.234h9.54V535Zm4.54,0v29.992h3.92v-11.68l-0.39-12.545,9.72,24.225h2.99l9.74-24.286-0.37,12.606v11.68h3.92V535h-5.08l-9.7,24.472L1791.54,535h-5.06Z"/>
  <path id="shape-01" class="cls-2" d="M279.341,174.95L207.632,358.436H350.624l37.683,99.192H170.221L126.739,567.72H21.01L227.116,33.247Z"/>
</svg>
