<svg xmlns="http://www.w3.org/2000/svg" width="241" height="74.239" viewBox="0 0 241 74.239">
  <g id="emplifi-logo-tagline-color-RGB" transform="translate(-168.28 -249.35)">
    <path id="Path_263" data-name="Path 263" d="M179.282,279.64a11.032,11.032,0,0,0-11,11h0a11.032,11.032,0,0,0,11,11h2.269v-22Z" transform="translate(0 -14.739)" fill="#49c7ed"/>
    <path id="Path_264" data-name="Path 264" d="M239.259,279.64H236.99v22h2.269a11.032,11.032,0,0,0,11-11h0A11.032,11.032,0,0,0,239.259,279.64Z" transform="translate(-33.434 -14.739)" fill="#485daa"/>
    <path id="Path_265" data-name="Path 265" d="M216.135,264.792a11.032,11.032,0,0,0-11-11h0a11.032,11.032,0,0,0-11,11v2.269h22Z" transform="translate(-12.578 -2.16)" fill="#49c7ed"/>
    <path id="Path_266" data-name="Path 266" d="M194.79,327.413a11.039,11.039,0,0,0,10.664,8.358h0a11.032,11.032,0,0,0,11-11V322.5H199.7Z" transform="translate(-12.899 -35.594)" fill="#485daa"/>
    <path id="Path_267" data-name="Path 267" d="M194.13,279.64v24.274a10.692,10.692,0,0,0,.339,2.644l4.913-4.913h16.753v-22Z" transform="translate(-12.578 -14.739)" fill="#003a5d"/>
    <g id="Group_127" data-name="Group 127" transform="translate(230.182 249.35)">
      <path id="Path_268" data-name="Path 268" d="M313.884,299.715s-3.214,3.347-10.309,3.347c-9.169,0-14.725-6.228-14.725-14.791,0-8.5,5.422-14.791,13.657-14.791,8.168,0,12.784,5.822,12.784,13.99,0,.6-.067,1.74-.067,1.74H295.278c.4,5.689,3.748,8.5,8.7,8.5a12.082,12.082,0,0,0,7.563-2.475Zm-18.339-14.863h13.184c-.467-4.082-2.675-6.294-6.361-6.294C298.759,278.563,296.279,280.637,295.545,284.852Z" transform="translate(-288.85 -261.091)" fill="#454647"/>
      <path id="Path_269" data-name="Path 269" d="M350.37,274.133h4.282l.8,4.015h.4c2.074-3.081,4.687-4.687,9.3-4.687s8.035,1.874,9.976,5.088h.334c1.874-3.08,4.621-5.088,9.637-5.088,7.3,0,11.516,5.088,11.516,12.65v16.131h-6.561V286.711c0-4.282-2.208-7.629-6.561-7.629a6.475,6.475,0,0,0-6.695,6.361v16.8h-6.546v-16.2c0-3.948-2.341-6.962-6.628-6.962a6.51,6.51,0,0,0-6.695,6.361v16.8H350.37Z" transform="translate(-318.785 -261.082)" fill="#454647"/>
      <path id="Path_270" data-name="Path 270" d="M460.091,298.966V312.69H453.53V274.133h4.349l.94,4.015h.4s2.541-4.687,9.842-4.687c7.362,0,13.051,5.755,13.051,14.725,0,8.769-5.622,14.725-12.851,14.725-6.962,0-8.9-3.948-8.9-3.948h-.267Zm7.568-1.473c4.554,0,7.829-3.815,7.829-9.3,0-5.422-3.281-9.3-7.829-9.3-4.415,0-7.9,3.548-7.9,9.3C459.758,294.012,463.239,297.493,467.659,297.493Z" transform="translate(-368.982 -261.082)" fill="#454647"/>
      <path id="Path_271" data-name="Path 271" d="M519.73,250.65h6.561v40.5H519.73Z" transform="translate(-401.194 -249.983)" fill="#454647"/>
      <path id="Path_272" data-name="Path 272" d="M544.51,253.3a4.05,4.05,0,1,1,4.015,3.948A3.929,3.929,0,0,1,544.51,253.3Zm.734,9.1h6.561v28.114h-6.561Z" transform="translate(-413.252 -249.35)" fill="#454647"/>
      <path id="Path_273" data-name="Path 273" d="M571.425,262.591v-2.408c0-6.495,3.681-10.443,10.176-10.443a14.1,14.1,0,0,1,6.361,1.34l-2.074,4.954a8.818,8.818,0,0,0-3.614-.734c-2.608,0-4.282,1.74-4.282,4.554V262.6h7.83v5.155h-7.84v22.96H571.42V262.591Z" transform="translate(-426.346 -249.54)" fill="#454647"/>
      <path id="Path_274" data-name="Path 274" d="M607.94,253.3a4.05,4.05,0,1,1,4.015,3.948A3.929,3.929,0,0,1,607.94,253.3Zm.739,9.1h6.561v28.114h-6.561Z" transform="translate(-444.116 -249.35)" fill="#454647"/>
    </g>
    <g id="Group_128" data-name="Group 128" transform="translate(404.557 249.689)">
      <path id="Path_275" data-name="Path 275" d="M630.395,250.446h-.708v2H629.2v-2h-.708v-.436h1.91v.436Zm.421,2v-2.434h.349l.842,1.1.873-1.1h.334v2.434h-.5v-1.494l-.611.8h-.185l-.611-.8v1.494Z" transform="translate(-628.49 -250.01)" fill="#454647"/>
    </g>
    <g id="Group_129" data-name="Group 129" transform="translate(265.017 308.752)">
      <path id="Path_276" data-name="Path 276" d="M356.7,366.53h6.495v1.74h-4.482V370.9h3.83v1.725h-3.83v2.757h4.631v1.741H356.7Z" transform="translate(-356.7 -365.77)" fill="#49c7ed"/>
      <path id="Path_277" data-name="Path 277" d="M372.36,371.475h1.879v.97h.108a2.418,2.418,0,0,1,2.167-1.165,2.64,2.64,0,0,1,2.362,1.212H379a2.62,2.62,0,0,1,2.362-1.212,2.749,2.749,0,0,1,2.906,2.875v5.283H382.3v-4.6c0-1.088-.5-1.71-1.438-1.71a1.576,1.576,0,0,0-1.545,1.756v4.554H377.35v-4.723a1.438,1.438,0,0,0-1.484-1.592,1.594,1.594,0,0,0-1.53,1.74v4.569H372.37v-7.958Z" transform="translate(-364.32 -368.081)" fill="#49c7ed"/>
      <path id="Path_278" data-name="Path 278" d="M398.72,371.47h1.936v1.011h.108a2.775,2.775,0,0,1,2.392-1.212c2.223,0,3.753,1.663,3.753,4.148s-1.515,4.21-3.691,4.21a2.741,2.741,0,0,1-2.423-1.227h-.108v4.513H398.72Zm6.187,3.984a2.147,2.147,0,0,0-2.151-2.392,2.407,2.407,0,1,0,2.151,2.392Z" transform="translate(-377.146 -368.077)" fill="#49c7ed"/>
      <path id="Path_279" data-name="Path 279" d="M416.35,375.5c0-2.5,1.515-4.22,3.691-4.22a2.882,2.882,0,0,1,2.423,1.227h.108V371.48h1.966v7.963H422.6v-1.017H422.5a2.8,2.8,0,0,1-2.393,1.212C417.88,379.633,416.35,377.97,416.35,375.5Zm6.264-.026a2.15,2.15,0,1,0-2.136,2.392A2.186,2.186,0,0,0,422.614,375.475Z" transform="translate(-385.725 -368.081)" fill="#49c7ed"/>
      <path id="Path_280" data-name="Path 280" d="M435.765,374.9v-3.738H434.42V369.6h.893a.548.548,0,0,0,.575-.606v-1.6h1.848v2.2h2.192v1.576h-2.192v3.661a.973.973,0,0,0,1.088,1.088h1.058v1.633h-1.468A2.416,2.416,0,0,1,435.765,374.9Z" transform="translate(-394.518 -366.189)" fill="#49c7ed"/>
      <path id="Path_281" data-name="Path 281" d="M447.66,365.06h1.951v4.359h.123a2.453,2.453,0,0,1,2.208-1.165,2.761,2.761,0,0,1,2.875,2.952v5.206h-1.966v-4.693a1.517,1.517,0,0,0-1.561-1.617,1.652,1.652,0,0,0-1.663,1.71v4.6H447.66Z" transform="translate(-400.96 -365.055)" fill="#49c7ed"/>
      <path id="Path_282" data-name="Path 282" d="M464.077,381.348h.816a1.267,1.267,0,0,0,1.289-.924l.211-.56-3.163-8.2H465.3l1.982,5.6h.123l1.92-5.6h2.1l-3.512,9.324a2.8,2.8,0,0,1-2.86,2.12h-.986Z" transform="translate(-408.536 -368.266)" fill="#49c7ed"/>
      <path id="Path_283" data-name="Path 283" d="M479.092,383.69h1.966l-.816,3.768H478.82Z" transform="translate(-416.122 -374.12)" fill="#49c7ed"/>
      <path id="Path_284" data-name="Path 284" d="M492.53,375.5c0-2.5,1.515-4.22,3.691-4.22a2.882,2.882,0,0,1,2.423,1.227h.108V371.48h1.966v7.963h-1.936v-1.017h-.108a2.8,2.8,0,0,1-2.393,1.212C494.06,379.633,492.53,377.97,492.53,375.5Zm6.269-.026a2.15,2.15,0,1,0-2.136,2.392A2.186,2.186,0,0,0,498.8,375.475Z" transform="translate(-422.793 -368.081)" fill="#49c7ed"/>
      <path id="Path_285" data-name="Path 285" d="M511.67,371.475h1.879v.97h.108a2.418,2.418,0,0,1,2.167-1.165,2.64,2.64,0,0,1,2.362,1.212h.123a2.62,2.62,0,0,1,2.362-1.212,2.749,2.749,0,0,1,2.906,2.875v5.283H521.61v-4.6c0-1.088-.5-1.71-1.438-1.71a1.576,1.576,0,0,0-1.545,1.756v4.554H516.66v-4.723a1.438,1.438,0,0,0-1.484-1.592,1.594,1.594,0,0,0-1.53,1.74v4.569H511.68v-7.958Z" transform="translate(-432.107 -368.081)" fill="#49c7ed"/>
      <path id="Path_286" data-name="Path 286" d="M538.03,371.47h1.936v1.011h.108a2.775,2.775,0,0,1,2.392-1.212c2.223,0,3.753,1.663,3.753,4.148s-1.514,4.21-3.691,4.21A2.741,2.741,0,0,1,540.1,378.4H540v4.513H538.03Zm6.187,3.984a2.147,2.147,0,0,0-2.151-2.392,2.407,2.407,0,1,0,2.151,2.392Z" transform="translate(-444.933 -368.077)" fill="#49c7ed"/>
      <path id="Path_287" data-name="Path 287" d="M556.16,374.173V365.06h1.966v8.928c0,.452.226.7.637.7h.318v1.725h-.739A2.015,2.015,0,0,1,556.16,374.173Z" transform="translate(-453.755 -365.055)" fill="#49c7ed"/>
      <path id="Path_288" data-name="Path 288" d="M563.62,366.285a1.213,1.213,0,1,1,1.212,1.15A1.116,1.116,0,0,1,563.62,366.285Zm.226,2.208h1.966v7.963h-1.966Z" transform="translate(-457.385 -365.099)" fill="#49c7ed"/>
      <path id="Path_289" data-name="Path 289" d="M571.08,370.02h-1.36v-1.576h1.407v-.637a2.67,2.67,0,0,1,2.921-2.757h1.027v1.633h-.832a1.091,1.091,0,0,0-1.212,1.181v.575h2.1v1.576h-2.09V376.4H571.08Z" transform="translate(-460.353 -365.05)" fill="#49c7ed"/>
      <path id="Path_290" data-name="Path 290" d="M582.52,366.285a1.213,1.213,0,1,1,1.212,1.15A1.116,1.116,0,0,1,582.52,366.285Zm.226,2.208h1.966v7.963h-1.966Z" transform="translate(-466.582 -365.099)" fill="#49c7ed"/>
      <path id="Path_291" data-name="Path 291" d="M589,375.5a3.943,3.943,0,0,1,4.01-4.22,3.841,3.841,0,0,1,3.948,4.133v.621H590.9a2.232,2.232,0,0,0,4.148.924h1.833a3.666,3.666,0,0,1-3.876,2.68A3.946,3.946,0,0,1,589,375.5Zm6.084-.863a1.943,1.943,0,0,0-2.074-1.787,2.048,2.048,0,0,0-2.074,1.787Z" transform="translate(-469.735 -368.081)" fill="#49c7ed"/>
      <path id="Path_292" data-name="Path 292" d="M606.19,372.474c0-2.5,1.515-4.22,3.691-4.22a2.882,2.882,0,0,1,2.423,1.227h.108v-4.42h1.966v11.352h-1.936v-1.017h-.108a2.8,2.8,0,0,1-2.393,1.212C607.72,376.607,606.19,374.943,606.19,372.474Zm6.269-.026a2.15,2.15,0,1,0-2.136,2.392A2.189,2.189,0,0,0,612.459,372.448Z" transform="translate(-478.099 -365.055)" fill="#49c7ed"/>
      <path id="Path_293" data-name="Path 293" d="M624.94,384.309a1.122,1.122,0,0,1,1.15-1.119,1.12,1.12,0,1,1,0,2.238A1.116,1.116,0,0,1,624.94,384.309Z" transform="translate(-487.223 -373.877)" fill="#49c7ed"/>
    </g>
    <g id="Group_130" data-name="Group 130" transform="translate(402.708 308.752)">
      <path id="Path_294" data-name="Path 294" d="M625.83,365.266h-.349v.986h-.241v-.986h-.349v-.216h.94v.216Zm.205.986v-1.2h.175l.416.539.431-.539h.164v1.2h-.246v-.739l-.3.39h-.092l-.3-.39v.739Z" transform="translate(-624.89 -365.05)" fill="#49c7ed"/>
    </g>
  </g>
</svg>
